<svg xmlns="http://www.w3.org/2000/svg"  viewBox="0 0 64 64" width="64px" height="64px" baseProfile="basic"><path fill="#85cbf8" d="M53,15.522C53,21.137,48.337,23,42.538,23S32,21.137,32,15.522S34.471,4,42.5,4S53,9.907,53,15.522z"/><polygon fill="#7bbeeb" points="42,47 46.202,53.955 48.719,54.124 51,56 52,59 46,59 37,59 34,52"/><path fill="#85cbf8" d="M48.314,21.042c0,0,5.686,2.937,5.686,10.958h-2c1.694,1.983,0.91,7.225,0,8	c-0.015,0-1.542-0.506-1.542-0.506C49.301,42.966,46.134,46.972,43,48h-1l-5,4l0.304,2.128L42,55l2,4h-3H29l-1-1l2-3l-1-6	l11.169-24.775L48.314,21.042z"/><path fill="#ace3ff" d="M33.256,19.745C16,19.745,9,52.383,9,59c5.655,0,37-9,37-28c0-6-2.912-7.741-2.912-7.741L41,24l-5-2	L33.256,19.745z"/><path fill="#ace3ff" d="M42.519,15.919c-0.005,0,2.082,4.294,6.375,4.294c5.425,0,5.681-4.272,5.681-5.693h1.42	c0-2.84-1.42-4.26-1.42-4.26h1.42c0,0-1.42-4.26-7.101-4.26c-2.193,0-4.801,1.646-5.876,4.026c-0.317,0.703-0.713,0.708-1.028,0.007	C40.916,7.649,38.305,6,36.11,6c-5.681,0-7.101,4.26-7.101,4.26h1.42c0,0-1.42,1.42-1.42,4.26h1.42c0,1.42,0.255,5.693,5.681,5.693	c4.292,0,6.38-4.294,6.375-4.294"/><path fill="#ffeb9b" d="M37,11.026c-0.474,0-0.904,0.095-1.284,0.231C34.656,11.636,34,12.351,34,12.351 S34.541,15,37.272,15c1.1,0,2.218-0.67,2.728-1.325c0,0-0.222-0.74-0.754-1.439C38.773,11.615,38.056,11.026,37,11.026z"/><path fill="#ffeb9b" d="M48,11.026c0.474,0,0.904,0.095,1.284,0.231C50.344,11.636,51,12.351,51,12.351S50.459,15,47.728,15 c-1.1,0-2.218-0.67-2.728-1.325c0,0,0.222-0.74,0.754-1.439C46.227,11.615,46.944,11.026,48,11.026z"/><path fill="none" stroke="#8d6c9f" stroke-linecap="round" stroke-linejoin="round" stroke-miterlimit="10" stroke-width="2" d="M33,20	C15.951,20.356,9,51,9,59c7,0,37-11,37-28c0-3.816-1.178-5.91-2.035-6.928"/><path fill="none" stroke="#8d6c9f" stroke-linecap="round" stroke-linejoin="round" stroke-miterlimit="10" stroke-width="2" d="M51.83,19.622C51.83,22,46.592,24,42.538,24c-3.889,0-8.895-1.821-9.346-4.087"/><path fill="none" stroke="#8d6c9f" stroke-linecap="round" stroke-linejoin="round" stroke-miterlimit="10" stroke-width="2" d="M36.046,5.856C37.619,4.704,39.729,4,42.5,4c2.774,0,4.884,0.705,6.458,1.859"/><path fill="none" stroke="#8d6c9f" stroke-linecap="round" stroke-linejoin="round" stroke-miterlimit="10" stroke-width="2" d="M42.519,16c-0.005,0,2.082,4.213,6.375,4.213c5.425,0,5.681-4.272,5.681-5.693h1.42c0-2.84-1.42-4.26-1.42-4.26h1.42	c0,0-1.42-4.26-7.101-4.26c-3.893,0-6.407,4-6.407,4S40,6,36.11,6c-5.681,0-7.101,4.26-7.101,4.26h1.42c0,0-1.42,1.42-1.42,4.26	h1.42c0,1.42,0.255,5.693,5.681,5.693c4.292,0,6.38-4.213,6.375-4.213H42.519z"/><path fill="none" stroke="#8d6c9f" stroke-linecap="round" stroke-linejoin="round" stroke-miterlimit="10" stroke-width="2" d="M37,11.026c-0.474,0-0.904,0.095-1.284,0.231C34.656,11.636,34,12.351,34,12.351S34.541,15,37.272,15c1.1,0,2.218-0.67,2.728-1.325 c0,0-0.222-0.74-0.754-1.439C38.773,11.615,38.056,11.026,37,11.026z"/><path fill="none" stroke="#8d6c9f" stroke-linecap="round" stroke-linejoin="round" stroke-miterlimit="10" stroke-width="2" d="M48,11.026c0.474,0,0.904,0.095,1.284,0.231C50.344,11.636,51,12.351,51,12.351S50.459,15,47.728,15c-1.1,0-2.218-0.67-2.728-1.325 c0,0,0.222-0.74,0.754-1.439C46.227,11.615,46.944,11.026,48,11.026z"/><path fill="none" stroke="#8d6c9f" stroke-linecap="round" stroke-linejoin="round" stroke-miterlimit="10" stroke-width="2" d="M29.449,52.489l1.157,2.201C29.241,55.188,28,56.486,28,58.023V59h15.956v-0.562c0-2.451-1.987-4.438-4.438-4.438H38l-1-2	c0,0,8-4,13.458-12.506c0,0,1.527,0.506,1.542,0.506c0.91-0.775,1.694-6.017,0-8h2c0-5.221-2.409-8.288-4.091-9.793"/><path fill="#8d6c9f" d="M16.262,51.005c-0.134,0-0.229-0.003-0.275-0.004c-0.513-0.019-0.928-0.422-0.962-0.933 c-0.022-0.335-0.175-3.316,1.283-4.774c0.345-0.345,0.887-0.391,1.285-0.109c0.301,0.213,0.46,0.58,0.413,0.946 c-0.055,0.438-0.025,1.249,0.29,1.563c0,0,0,0,0,0c0.336,0.335,1.213,0.357,1.573,0.314c0.361-0.052,0.733,0.097,0.955,0.405 c0.286,0.397,0.242,0.945-0.104,1.292C19.53,50.895,17.114,51.005,16.262,51.005z"/><path fill="#8d6c9f" d="M27.262,40.005c-0.134,0-0.229-0.003-0.275-0.004c-0.513-0.019-0.928-0.422-0.962-0.933 c-0.022-0.335-0.175-3.316,1.283-4.774c0.345-0.345,0.887-0.391,1.285-0.109c0.301,0.213,0.46,0.58,0.413,0.946 c-0.055,0.438-0.025,1.249,0.29,1.563c0,0,0,0,0,0c0.336,0.335,1.213,0.357,1.573,0.314c0.361-0.052,0.733,0.097,0.955,0.405 c0.286,0.397,0.242,0.945-0.104,1.292C30.53,39.895,28.114,40.005,27.262,40.005z"/><path fill="#8d6c9f" d="M22.256,34.999c-0.134,0-0.229-0.003-0.275-0.004c-0.513-0.019-0.928-0.422-0.962-0.933 c-0.022-0.335-0.175-3.316,1.283-4.774c0.345-0.345,0.887-0.391,1.285-0.109c0.301,0.213,0.46,0.58,0.413,0.946 c-0.055,0.438-0.025,1.249,0.29,1.563c0,0,0,0,0,0c0.336,0.335,1.213,0.357,1.573,0.314c0.361-0.052,0.733,0.097,0.955,0.405 c0.286,0.397,0.242,0.945-0.104,1.292C25.525,34.889,23.109,34.999,22.256,34.999z"/><path fill="#8d6c9f" d="M32.242,44.985c-0.134,0-0.229-0.003-0.275-0.004c-0.513-0.019-0.928-0.422-0.962-0.933 c-0.022-0.335-0.175-3.316,1.283-4.774c0.345-0.345,0.887-0.391,1.285-0.109c0.301,0.213,0.46,0.58,0.413,0.946 c-0.055,0.438-0.025,1.249,0.29,1.563c0,0,0,0,0,0c0.336,0.335,1.213,0.357,1.573,0.314c0.361-0.052,0.733,0.097,0.955,0.405 c0.286,0.397,0.242,0.945-0.104,1.292C35.511,44.875,33.095,44.985,32.242,44.985z"/><path fill="#8d6c9f" d="M18.262,43.005c-0.134,0-0.229-0.003-0.275-0.004c-0.513-0.019-0.928-0.422-0.962-0.933 c-0.022-0.335-0.175-3.316,1.283-4.774c0.345-0.345,0.887-0.391,1.285-0.109c0.301,0.213,0.46,0.58,0.413,0.946 c-0.055,0.438-0.025,1.249,0.29,1.563c0,0,0,0,0,0c0.336,0.335,1.213,0.357,1.573,0.314c0.361-0.052,0.733,0.097,0.955,0.405 c0.286,0.397,0.242,0.945-0.104,1.292C21.53,42.895,19.114,43.005,18.262,43.005z"/><path fill="#8d6c9f" d="M24.262,49.005c-0.134,0-0.229-0.003-0.275-0.004c-0.513-0.019-0.928-0.422-0.962-0.933 c-0.022-0.335-0.175-3.316,1.283-4.774c0.345-0.345,0.887-0.391,1.285-0.109c0.301,0.213,0.46,0.58,0.413,0.946 c-0.055,0.438-0.025,1.249,0.29,1.563c0,0,0,0,0,0c0.336,0.335,1.213,0.357,1.573,0.314c0.361-0.052,0.733,0.097,0.955,0.405 c0.286,0.397,0.242,0.945-0.104,1.292C27.53,48.895,25.114,49.005,24.262,49.005z"/><path fill="#8d6c9f" d="M42.5,21.003c-0.284,0-0.555-0.121-0.745-0.333C41.228,20.081,40,18.593,40,17.5 c0-1.378,1.121-2.5,2.5-2.5s2.5,1.122,2.5,2.5c0,1.093-1.228,2.581-1.755,3.17C43.055,20.882,42.784,21.003,42.5,21.003z"/><path fill="none" stroke="#8d6c9f" stroke-linecap="round" stroke-linejoin="round" stroke-miterlimit="10" stroke-width="2" d="M34,59	h13h5v-0.562C52,55.987,50.013,54,47.562,54H47h-1l-3-6"/><polygon fill="#8d6c9f" points="40,55 42,59 43.956,59 43,55.742"/><polygon fill="#8d6c9f" points="48,55 50,59 51.956,59 51,55.742"/></svg>